<svg xmlns="http://www.w3.org/2000/svg" width="1600" height="900" viewBox="0 0 1600 900">
  <defs>
    <linearGradient id="bg" x1="0" y1="0" x2="1" y2="1">
      <stop offset="0" stop-color="#050814"/>
      <stop offset="0.55" stop-color="#0B1433"/>
      <stop offset="1" stop-color="#041225"/>
    </linearGradient>

    <radialGradient id="glow" cx="50%" cy="42%" r="70%">
      <stop offset="0" stop-color="#39D5FF" stop-opacity="0.35"/>
      <stop offset="0.35" stop-color="#2A7BFF" stop-opacity="0.18"/>
      <stop offset="1" stop-color="#000000" stop-opacity="0"/>
    </radialGradient>

    <linearGradient id="grid" x1="0" y1="0" x2="0" y2="1">
      <stop offset="0" stop-color="#39D5FF" stop-opacity="0.16"/>
      <stop offset="1" stop-color="#39D5FF" stop-opacity="0.04"/>
    </linearGradient>

    <linearGradient id="accent" x1="0" y1="0" x2="1" y2="0">
      <stop offset="0" stop-color="#39D5FF"/>
      <stop offset="0.55" stop-color="#63FFB8"/>
      <stop offset="1" stop-color="#8A7BFF"/>
    </linearGradient>

    <filter id="softGlow" x="-30%" y="-30%" width="160%" height="160%">
      <feGaussianBlur stdDeviation="6" result="b"/>
      <feColorMatrix in="b" type="matrix"
        values="1 0 0 0 0
                0 1 0 0 0
                0 0 1 0 0
                0 0 0 0.55 0" result="g"/>
      <feMerge>
        <feMergeNode in="g"/>
        <feMergeNode in="SourceGraphic"/>
      </feMerge>
    </filter>

    <pattern id="dot" width="22" height="22" patternUnits="userSpaceOnUse">
      <circle cx="1.5" cy="1.5" r="1.2" fill="#39D5FF" opacity="0.12" />
    </pattern>
  </defs>

  <rect width="1600" height="900" fill="url(#bg)"/>
  <rect width="1600" height="900" fill="url(#glow)"/>
  <rect width="1600" height="900" fill="url(#dot)"/>

  <g opacity="0.55">
    <path d="M0 640 C 280 560, 420 720, 720 650 S 1180 540, 1600 620" fill="none" stroke="url(#grid)" stroke-width="2"/>
    <path d="M0 700 C 260 610, 500 780, 760 705 S 1210 560, 1600 670" fill="none" stroke="url(#grid)" stroke-width="2"/>
    <path d="M0 760 C 320 700, 540 860, 820 770 S 1250 620, 1600 725" fill="none" stroke="url(#grid)" stroke-width="2"/>
  </g>

  <g filter="url(#softGlow)">
    <g transform="translate(800 450)">
      <circle r="210" fill="none" stroke="#39D5FF" stroke-opacity="0.25" stroke-width="2"/>
      <circle r="150" fill="none" stroke="#63FFB8" stroke-opacity="0.22" stroke-width="2"/>
      <circle r="92" fill="none" stroke="#8A7BFF" stroke-opacity="0.20" stroke-width="2"/>

      <g>
        <circle cx="0" cy="-190" r="9" fill="#39D5FF"/>
        <circle cx="180" cy="-60" r="9" fill="#63FFB8"/>
        <circle cx="110" cy="170" r="9" fill="#8A7BFF"/>
        <circle cx="-110" cy="170" r="9" fill="#39D5FF"/>
        <circle cx="-180" cy="-60" r="9" fill="#63FFB8"/>
      </g>

      <g stroke="url(#accent)" stroke-width="2" stroke-opacity="0.85">
        <line x1="0" y1="-190" x2="180" y2="-60"/>
        <line x1="180" y1="-60" x2="110" y2="170"/>
        <line x1="110" y1="170" x2="-110" y2="170"/>
        <line x1="-110" y1="170" x2="-180" y2="-60"/>
        <line x1="-180" y1="-60" x2="0" y2="-190"/>
        <line x1="0" y1="-190" x2="0" y2="0"/>
        <line x1="-180" y1="-60" x2="0" y2="0"/>
        <line x1="180" y1="-60" x2="0" y2="0"/>
        <line x1="110" y1="170" x2="0" y2="0"/>
        <line x1="-110" y1="170" x2="0" y2="0"/>
      </g>

      <circle r="22" fill="#0B1433" stroke="url(#accent)" stroke-width="2"/>
      <rect x="-44" y="-8" width="88" height="16" rx="8" fill="url(#accent)" opacity="0.9"/>
      <rect x="-8" y="-44" width="16" height="88" rx="8" fill="url(#accent)" opacity="0.9"/>
    </g>
  </g>

  <g font-family="ui-sans-serif, system-ui, -apple-system, Segoe UI, Roboto, Helvetica, Arial" fill="#EAF6FF">
    <text x="96" y="170" font-size="56" font-weight="800" letter-spacing="0.6">Hyperledger Fabric</text>
    <text x="96" y="222" font-size="22" opacity="0.85">Traceability Blockchain · WSL2 · Docker · Go Chaincode · Node Gateway</text>

    <rect x="96" y="262" width="520" height="6" rx="3" fill="url(#accent)" opacity="0.95"/>

    <g opacity="0.82" font-size="18">
      <text x="96" y="320">Orderer + 2 Peers + 3 CA</text>
      <text x="96" y="350">Channel: tracechannel · Chaincode: traceability</text>
      <text x="96" y="380">API: http://localhost:3000</text>
    </g>
  </g>

  <g opacity="0.55" stroke="#39D5FF" stroke-width="1">
    <path d="M70 70 H1530" opacity="0.18"/>
    <path d="M70 830 H1530" opacity="0.18"/>
    <path d="M70 70 V830" opacity="0.12"/>
    <path d="M1530 70 V830" opacity="0.12"/>
  </g>
</svg>
